<?xml version="1.0" encoding="UTF-8" standalone="no"?>
<!-- Generator: Adobe Illustrator 25.2.1, SVG Export Plug-In . SVG Version: 6.00 Build 0)  -->

<svg
   version="1.1"
   width="100%"
   height="100%"
   viewBox="0 0 155.235 154.834"
   xml:space="preserve"
   id="donut"
   sodipodi:docname="logo.svg"
   inkscape:version="1.1 (c4e8f9e, 2021-05-24)"
   inkscape:export-filename="/home/will/code/Web3Donut/web3donut/public/favicon.png"
   inkscape:export-xdpi="39.681206"
   inkscape:export-ydpi="39.681206"
   xmlns:inkscape="http://www.inkscape.org/namespaces/inkscape"
   xmlns:sodipodi="http://sodipodi.sourceforge.net/DTD/sodipodi-0.dtd"
   xmlns="http://www.w3.org/2000/svg"
   xmlns:svg="http://www.w3.org/2000/svg"><defs
   id="defs1498">
	
	
	

		
		
		
		
		
	</defs><sodipodi:namedview
   id="namedview1496"
   pagecolor="#505050"
   bordercolor="#ffffff"
   borderopacity="1"
   inkscape:pageshadow="0"
   inkscape:pageopacity="0"
   inkscape:pagecheckerboard="1"
   showgrid="false"
   inkscape:zoom="4.6717172"
   inkscape:cx="164.82162"
   inkscape:cy="79.735135"
   inkscape:window-width="3440"
   inkscape:window-height="1373"
   inkscape:window-x="0"
   inkscape:window-y="30"
   inkscape:window-maximized="1"
   inkscape:current-layer="donut"
   fit-margin-top="0"
   fit-margin-left="0"
   fit-margin-right="0"
   fit-margin-bottom="0" />




<g
   id="g2138"><g
     id="Background"
     transform="translate(-89.289,-478.914)">
</g><g
     id="Theme_Set"
     transform="translate(-89.289,-478.914)">
</g><path
     fill="#e1d0ab"
     d="m 46.065,77.217 c 0,4.079 3.705,7.381 5.182,10.934 1.526,3.679 1.3,8.608 4.078,11.386 2.75,2.777 7.706,2.551 11.384,4.078 3.53,1.476 6.856,5.179 10.91,5.179 4.079,0 7.383,-3.703 10.935,-5.179 3.678,-1.527 8.607,-1.301 11.385,-4.078 2.778,-2.778 2.55,-7.707 4.078,-11.386 1.476,-3.553 5.18,-6.855 5.18,-10.934 0,-4.053 -3.703,-7.381 -5.18,-10.909 -1.528,-3.678 -1.3,-8.633 -4.078,-11.384 -2.778,-2.779 -7.708,-2.552 -11.385,-4.08 -3.552,-1.476 -6.857,-5.179 -10.935,-5.179 -4.054,0 -7.38,3.703 -10.91,5.179 -3.678,1.527 -8.633,1.301 -11.384,4.08 -2.778,2.751 -2.552,7.706 -4.078,11.384 -1.477,3.528 -5.182,6.856 -5.182,10.909 z M 77.618,52.221 c 13.812,0 24.998,11.21 24.998,24.996 0,13.812 -11.186,24.997 -24.998,24.997 -13.812,0 -24.997,-11.185 -24.997,-24.997 0,-13.786 11.185,-24.996 24.997,-24.996 z m 77.617,24.996 c 0,42.863 -34.753,77.617 -77.617,77.617 C 34.757,154.834 0,120.079 0,77.217 0,36.957 30.679,3.878 69.912,0 69.586,0.876 69.335,1.776 69.186,2.753 69.134,3.128 69.085,3.478 69.062,3.854 60.152,6.232 58.528,12.311 51.896,15.063 43.238,18.667 37.008,12.086 25.074,24.671 13.165,37.282 19.068,42.837 15.467,51.495 12.014,59.852 2.78,61.179 3.281,77.217 c 0.5,16.039 8.733,17.39 12.186,25.747 3.601,8.633 1.198,18.291 9.607,26.798 8.406,8.533 18.165,6.031 26.822,9.609 8.357,3.477 9.208,12.211 25.722,12.211 16.538,0 17.391,-8.733 25.748,-12.211 8.633,-3.578 15.287,-0.852 26.822,-9.609 11.51,-8.732 6.007,-18.165 9.584,-26.798 3.478,-8.357 12.462,-11.134 12.211,-25.747 -0.277,-14.612 -8.733,-17.365 -12.211,-25.722 -1.776,-4.279 -1.352,-8.232 -1.876,-12.411 1.925,-0.926 3.627,-2.302 4.879,-4.028 7.88,12.135 12.46,26.598 12.46,42.161 z"
     id="path1471" /><g
     id="g2014"
     transform="translate(-89.289,-478.914)"><path
       fill="#ff8aba"
       d="m 229.061,530.409 c -1.776,-4.279 -1.352,-8.232 -1.876,-12.411 -4.608,2.305 -11.056,1.152 -14.537,-2.628 -6.938,7.118 -19.176,3.673 -21.568,-5.829 -9.004,4.711 -20.027,-3.164 -18.493,-13.212 -7.8,1.055 -14.858,-5.84 -14.236,-13.562 -8.91,2.378 -10.534,8.457 -17.166,11.209 -8.658,3.604 -14.888,-2.977 -26.822,9.608 -11.909,12.611 -6.006,18.166 -9.607,26.824 -3.453,8.357 -12.687,9.684 -12.186,25.722 0.5,16.039 8.733,17.39 12.186,25.747 3.601,8.633 1.198,18.291 9.607,26.798 8.406,8.533 18.165,6.031 26.822,9.609 8.357,3.477 9.208,12.211 25.722,12.211 16.538,0 17.391,-8.733 25.748,-12.211 8.633,-3.578 15.287,-0.852 26.822,-9.609 11.51,-8.732 6.007,-18.165 9.584,-26.798 3.478,-8.357 12.462,-11.134 12.211,-25.747 -0.276,-14.611 -8.733,-17.364 -12.211,-25.721 z m -39.834,48.042 c -2.778,2.777 -7.708,2.551 -11.385,4.078 -3.552,1.476 -6.857,5.179 -10.935,5.179 -4.054,0 -7.38,-3.703 -10.91,-5.179 -3.678,-1.527 -8.633,-1.301 -11.384,-4.078 -2.778,-2.778 -2.552,-7.707 -4.078,-11.386 -1.476,-3.553 -5.182,-6.855 -5.182,-10.934 0,-4.053 3.705,-7.381 5.182,-10.909 1.526,-3.678 1.3,-8.633 4.078,-11.384 2.75,-2.779 7.706,-2.552 11.384,-4.08 3.53,-1.476 6.856,-5.179 10.91,-5.179 4.079,0 7.383,3.703 10.935,5.179 3.678,1.527 8.607,1.301 11.385,4.08 2.778,2.751 2.55,7.706 4.078,11.384 1.476,3.528 5.18,6.856 5.18,10.909 0,4.079 -3.703,7.381 -5.18,10.934 -1.527,3.679 -1.3,8.608 -4.078,11.386 z"
       id="path1469" /><path
       fill="#fcea92"
       d="m 123.794,509.442 c 0.877,-1.077 2.453,-1.252 3.529,-0.377 l 9.034,7.232 c 1.075,0.852 1.25,2.428 0.373,3.503 -0.849,1.076 -2.426,1.251 -3.502,0.4 l -9.034,-7.231 c -1.075,-0.876 -1.25,-2.453 -0.4,-3.527 z m 88.927,13.812 c 1.278,-0.502 1.928,-1.953 1.428,-3.254 l -1.729,-4.429 c -1.224,1.201 -2.702,2.153 -4.303,2.753 l 1.35,3.503 c 0.527,1.277 1.954,1.926 3.254,1.427 z m 13.739,39.058 c 0.774,1.15 2.326,1.426 3.476,0.65 1.127,-0.8 1.403,-2.352 0.626,-3.503 l -6.606,-9.508 c -0.774,-1.126 -2.326,-1.401 -3.475,-0.626 -1.128,0.8 -1.428,2.352 -0.627,3.479 z m -44.29,45.139 -10.258,5.305 c -1.227,0.649 -1.728,2.151 -1.075,3.376 0.625,1.227 2.125,1.727 3.353,1.077 l 10.282,-5.305 c 1.225,-0.65 1.702,-2.151 1.077,-3.378 -0.624,-1.225 -2.153,-1.701 -3.379,-1.075 z m -58.825,-24.646 10.51,-4.854 c 1.25,-0.576 1.8,-2.051 1.226,-3.302 -0.577,-1.251 -2.077,-1.802 -3.329,-1.227 l -10.508,4.854 c -1.252,0.576 -1.801,2.053 -1.227,3.304 0.6,1.274 2.076,1.8 3.328,1.225 z"
       id="path1473" /><path
       fill="#a5f3c9"
       d="m 117.89,561.061 c 1.05,0.9 1.2,2.476 0.325,3.529 -0.901,1.075 -2.478,1.225 -3.528,0.325 l -8.907,-7.382 c -1.077,-0.875 -1.201,-2.452 -0.328,-3.527 0.877,-1.052 2.454,-1.201 3.504,-0.326 z m 95.031,7.657 -10.758,4.279 c -1.3,0.525 -1.925,1.977 -1.401,3.253 0.499,1.277 1.95,1.902 3.253,1.401 l 10.759,-4.279 c 1.276,-0.501 1.901,-1.951 1.376,-3.228 -0.501,-1.302 -1.953,-1.928 -3.229,-1.426 z m -52.32,26.273 -7.378,8.907 c -0.879,1.051 -0.727,2.628 0.325,3.503 1.074,0.901 2.65,0.751 3.527,-0.325 l 7.38,-8.908 c 0.903,-1.05 0.753,-2.628 -0.325,-3.529 -1.05,-0.875 -2.627,-0.725 -3.529,0.352 z m 18.016,-75.717 c 0.777,1.151 2.326,1.451 3.479,0.676 l 9.581,-6.506 c 0.3,-0.199 0.552,-0.45 0.701,-0.75 -0.573,-0.976 -0.998,-2.027 -1.299,-3.152 -1.38,0.7 -2.88,1.151 -4.455,1.301 l -7.331,4.954 c -1.151,0.775 -1.451,2.326 -0.676,3.477 z"
       id="path1475" /></g><g
     id="g1485"
     transform="translate(-89.289,-478.914)">
			<path
   fill="#7f6a55"
   d="m 200.51,591.487 10.91,3.903 c 1.301,0.476 1.977,1.902 1.501,3.203 -0.473,1.301 -1.9,1.977 -3.203,1.526 l -10.885,-3.928 c -1.298,-0.451 -1.975,-1.903 -1.526,-3.203 0.477,-1.301 1.903,-1.977 3.203,-1.501 z m -76.616,-49.718 9.909,-5.981 c 1.177,-0.725 1.576,-2.252 0.849,-3.428 -0.698,-1.201 -2.251,-1.577 -3.427,-0.851 l -9.935,5.955 c -1.175,0.725 -1.552,2.252 -0.851,3.454 0.728,1.176 2.255,1.551 3.455,0.851 z m 78.269,-3.703 10.91,3.903 c 1.3,0.475 2.726,-0.2 3.201,-1.502 0.452,-1.301 -0.224,-2.727 -1.524,-3.203 l -10.886,-3.902 c -1.3,-0.477 -2.753,0.199 -3.202,1.5 -0.476,1.302 0.201,2.729 1.501,3.204 z m -66.158,57.725 -11.558,0.25 c -1.378,0 -2.478,1.151 -2.453,2.527 0.024,1.402 1.152,2.478 2.554,2.452 l 11.558,-0.225 c 1.378,-0.024 2.478,-1.175 2.454,-2.552 -0.026,-1.376 -1.178,-2.477 -2.555,-2.452 z m 16.54,-92.455 10.91,3.902 c 1.299,0.476 2.726,-0.199 3.199,-1.501 0.452,-1.301 -0.225,-2.728 -1.525,-3.203 l -10.886,-3.904 c -1.299,-0.475 -2.726,0.201 -3.199,1.501 -0.475,1.303 0.201,2.729 1.501,3.205 z"
   id="path1477" />
			<g
   id="g1483">
				
				
			</g>
		</g><g
     id="Watermark"
     opacity="0.46"
     transform="translate(-89.289,-478.914)">
</g><g
     id="Label_Template"
     transform="translate(-89.289,-478.914)">
</g></g>
</svg>
